<?xml version="1.0" standalone="no"?>
<!DOCTYPE svg PUBLIC "-//W3C//DTD SVG 20010904//EN"
 "http://www.w3.org/TR/2001/REC-SVG-20010904/DTD/svg10.dtd">
<svg version="1.0" xmlns="http://www.w3.org/2000/svg"
 width="512.000000pt" height="512.000000pt" viewBox="0 0 512.000000 512.000000"
 preserveAspectRatio="xMidYMid meet">
<metadata>
Created by potrace 1.11, written by Peter Selinger 2001-2013
</metadata>
<g transform="translate(0.000000,512.000000) scale(0.100000,-0.100000)"
fill="#000000" stroke="none">
<path d="M2416 3444 c-174 -42 -322 -177 -392 -359 -25 -62 -28 -84 -28 -190
-1 -108 2 -128 27 -197 16 -43 42 -95 57 -117 16 -21 31 -59 35 -84 4 -25 15
-58 25 -74 22 -37 80 -65 123 -61 24 2 37 -3 50 -19 24 -30 64 -30 78 0 10 22
6 50 -47 317 -37 186 -43 200 -86 200 -20 0 -53 -44 -43 -60 3 -5 -2 -10 -13
-10 -11 0 -35 -11 -55 -24 -44 -30 -47 -25 -54 89 -10 146 31 258 132 361 100
102 210 145 353 140 107 -4 179 -30 265 -94 105 -81 171 -201 184 -337 7 -73
-12 -175 -33 -175 -8 0 -14 4 -14 10 0 5 -18 15 -40 21 -30 9 -40 17 -40 34 0
27 -18 45 -45 45 -43 0 -51 -21 -91 -240 -3 -14 -15 -77 -28 -140 -25 -124
-22 -146 19 -156 26 -6 55 9 55 30 0 7 21 11 54 11 49 0 59 4 90 34 26 25 38
48 46 88 6 29 27 79 46 110 195 325 18 754 -351 848 -73 18 -200 18 -279 -1z"/>
<path d="M2180 2209 l0 -99 -40 21 c-132 69 -277 -40 -263 -199 12 -150 137
-234 257 -172 38 19 62 19 51 -1 -4 -5 2 -10 12 -10 37 -3 75 0 81 6 3 3 6
129 7 279 l0 274 -52 0 -53 0 0 -99z m-27 -179 c26 -29 32 -54 27 -110 -5 -61
-59 -103 -117 -90 -56 13 -76 40 -81 107 -3 49 0 63 18 86 44 55 107 58 153 7z"/>
<path d="M959 2234 c0 -57 0 -426 0 -461 1 -27 3 -28 48 -26 27 0 51 2 55 2 3
1 7 40 7 88 1 47 3 88 5 91 3 2 38 5 79 6 111 4 167 44 188 135 17 76 -18 153
-84 188 -25 13 -63 17 -164 18 l-133 2 -1 -43z m238 -63 c11 -1 43 -51 43 -66
0 -11 -31 -65 -38 -66 -35 -6 -132 -4 -133 3 0 4 -1 28 -1 53 0 88 -4 83 60
80 31 -1 63 -3 69 -4z"/>
<path d="M3690 2197 l0 -55 -35 4 c-37 3 -35 6 -38 -63 -1 -25 3 -28 36 -31
l37 -3 0 -150 c0 -92 4 -149 10 -150 6 -1 21 -1 35 -1 66 0 61 -12 60 152 l-1
150 44 0 43 0 -3 48 c-3 49 -1 48 -64 51 -19 1 -21 7 -20 49 l1 47 -52 3 -53
3 0 -54z"/>
<path d="M1539 2140 c-97 -33 -148 -118 -135 -224 7 -60 42 -116 93 -147 31
-20 51 -24 114 -24 99 0 148 29 186 112 49 106 11 222 -87 270 -63 30 -109 34
-171 13z m149 -115 c44 -51 28 -151 -30 -181 -80 -42 -163 23 -152 120 11 95
120 131 182 61z"/>
<path d="M2521 2148 c-52 -9 -101 -44 -132 -95 -19 -30 -23 -51 -23 -108 0
-63 4 -76 32 -117 58 -85 170 -113 262 -65 64 32 71 50 35 87 -16 16 -31 26
-34 22 -14 -20 -58 -42 -83 -42 -110 0 -156 136 -72 212 18 15 47 22 85 19 9
-1 33 -12 53 -26 20 -13 36 -21 36 -17 0 5 9 18 21 30 27 30 18 56 -29 78 -51
24 -99 31 -151 22z"/>
<path d="M2935 2154 c-5 -1 -22 -5 -37 -8 -15 -4 -43 -20 -62 -37 -102 -89
-83 -287 34 -351 46 -25 125 -20 167 10 31 22 46 21 36 -4 -5 -14 -1 -16 42
-16 68 0 62 -18 61 200 l-1 197 -50 0 c-41 0 -50 -3 -47 -17 1 -9 -2 -19 -8
-23 -5 -3 -10 -2 -10 3 0 19 -97 54 -125 46z m101 -114 c23 -17 44 -69 39 -97
-2 -10 -4 -26 -4 -36 -1 -11 -15 -32 -32 -48 -44 -41 -90 -40 -134 4 -29 29
-32 38 -30 84 3 64 25 100 68 111 36 10 62 4 93 -18z"/>
<path d="M3367 2145 c-55 -14 -76 -30 -93 -71 -33 -79 12 -134 141 -174 62
-20 73 -34 51 -69 -12 -19 -100 -9 -126 14 -20 18 -21 18 -48 -2 -38 -29 -34
-52 13 -77 55 -28 149 -33 195 -9 48 25 79 75 74 116 -8 55 -35 80 -114 108
-99 35 -125 76 -59 92 18 5 41 -1 72 -17 l46 -23 26 27 c14 14 25 29 25 32 0
4 -15 16 -34 27 -48 30 -113 40 -169 26z"/>
<path d="M4136 2149 c-16 -5 -42 -20 -57 -35 -26 -25 -29 -26 -30 -8 -1 10 -1
24 0 29 0 6 -21 11 -49 11 l-50 0 -1 -40 c-3 -171 -1 -348 4 -353 3 -3 25 -6
49 -6 l43 -1 5 120 c3 67 10 128 17 141 15 25 45 37 89 34 34 -2 44 14 44 75
0 36 -18 45 -64 33z"/>
</g>
</svg>
